<svg width="32" height="32" viewBox="0 0 32 32" fill="none" xmlns="http://www.w3.org/2000/svg">
  <rect width="32" height="32" rx="6" fill="#10b981"/>
  <path d="M16 8c-4.411 0-8 3.589-8 8s3.589 8 8 8 8-3.589 8-8-3.589-8-8-8zm0 14c-3.309 0-6-2.691-6-6s2.691-6 6-6 6 2.691 6 6-2.691 6-6 6z" fill="white"/>
  <path d="M16 12c-1.657 0-3 1.343-3 3h1c0-1.103.897-2 2-2s2 .897 2 2c0 .551-.224 1.05-.586 1.414L15 18.828V20h2v-.172l1.414-1.414C19.326 17.602 20 16.36 20 15c0-2.209-1.791-4-4-4z" fill="white"/>
  <circle cx="16" cy="21" r="1" fill="white"/>
</svg>